<svg width="400.000000" height="400.000000" viewBox="0 0 400 400" fill="none" xmlns="http://www.w3.org/2000/svg" xmlns:xlink="http://www.w3.org/1999/xlink">
	<desc>
			Created with Pixso.
	</desc>
	<defs>
		<filter id="filter_2_47_dd" x="100.000000" y="124.000000" width="200.018280" height="152.382233" filterUnits="userSpaceOnUse" color-interpolation-filters="sRGB">
			<feFlood flood-opacity="0" result="BackgroundImageFix"/>
			<feBlend mode="normal" in="SourceGraphic" in2="BackgroundImageFix" result="shape"/>
			<feColorMatrix in="SourceAlpha" type="matrix" values="0 0 0 0 0 0 0 0 0 0 0 0 0 0 0 0 0 0 127 0" result="hardAlpha"/>
			<feOffset dx="0" dy="4"/>
			<feGaussianBlur stdDeviation="1.33333"/>
			<feComposite in2="hardAlpha" operator="arithmetic" k2="-1" k3="1"/>
			<feColorMatrix type="matrix" values="0 0 0 0 0 0 0 0 0 0 0 0 0 0 0 0 0 0 0.25 0"/>
			<feBlend mode="normal" in2="shape" result="effect_innerShadow_1"/>
		</filter>
		<filter id="filter_2_45_dd" x="1.000000" y="40.331242" width="353.013763" height="320.134827" filterUnits="userSpaceOnUse" color-interpolation-filters="sRGB">
			<feFlood flood-opacity="0" result="BackgroundImageFix"/>
			<feColorMatrix in="SourceAlpha" type="matrix" values="0 0 0 0 0 0 0 0 0 0 0 0 0 0 0 0 0 0 127 0" result="hardAlpha"/>
			<feOffset dx="0" dy="4"/>
			<feGaussianBlur stdDeviation="1.33333"/>
			<feComposite in2="hardAlpha" operator="out" k2="-1" k3="1"/>
			<feColorMatrix type="matrix" values="0 0 0 0 0 0 0 0 0 0 0 0 0 0 0 0 0 0 0.25 0"/>
			<feBlend mode="normal" in2="BackgroundImageFix" result="effect_dropShadow_1"/>
			<feBlend mode="normal" in="SourceGraphic" in2="effect_dropShadow_1" result="shape"/>
		</filter>
		<filter id="filter_2_51_dd" x="45.351562" y="53.933594" width="97.662262" height="90.066406" filterUnits="userSpaceOnUse" color-interpolation-filters="sRGB">
			<feFlood flood-opacity="0" result="BackgroundImageFix"/>
			<feBlend mode="normal" in="SourceGraphic" in2="BackgroundImageFix" result="shape"/>
			<feColorMatrix in="SourceAlpha" type="matrix" values="0 0 0 0 0 0 0 0 0 0 0 0 0 0 0 0 0 0 127 0" result="hardAlpha"/>
			<feOffset dx="0" dy="4"/>
			<feGaussianBlur stdDeviation="1.33333"/>
			<feComposite in2="hardAlpha" operator="arithmetic" k2="-1" k3="1"/>
			<feColorMatrix type="matrix" values="0 0 0 0 0 0 0 0 0 0 0 0 0 0 0 0 0 0 0.25 0"/>
			<feBlend mode="normal" in2="shape" result="effect_innerShadow_1"/>
		</filter>
		<linearGradient x1="218.852783" y1="45.396626" x2="406.500031" y2="426.999969" id="paint_linear_2_34_0" gradientUnits="userSpaceOnUse">
			<stop stop-color="#FFD99F"/>
			<stop offset="1.000000" stop-color="#FFD99F" stop-opacity="0.000000"/>
		</linearGradient>
		<linearGradient x1="267.097473" y1="256.036011" x2="267.097473" y2="349.119568" id="paint_linear_2_37_0" gradientUnits="userSpaceOnUse">
			<stop stop-color="#B6FFE3"/>
			<stop offset="1.000000" stop-color="#B6FFE3" stop-opacity="0.000000"/>
		</linearGradient>
		<linearGradient x1="158.794739" y1="283.220154" x2="158.794739" y2="350.012482" id="paint_linear_2_40_0" gradientUnits="userSpaceOnUse">
			<stop stop-color="#CCC7FF"/>
			<stop offset="1.000000" stop-color="#CCC7FF" stop-opacity="0.000000"/>
		</linearGradient>
	</defs>
	<rect width="400.000000" height="400.000000"/>
	<rect id="矩形 1" width="400.000000" height="400.000000" fill="#FFFFFF" fill-opacity="1.000000"/>
	<g filter="url(#filter_2_47_dd)">
		<path id="合并" d="M253.247 124.147C251.947 123.681 250.516 124.357 250.05 125.657L236.308 163.971C230.74 162.177 225 160.805 219.165 159.861C193.928 155.751 169.029 159.952 148.566 170.155C143.825 172.512 139.404 175.145 135.317 178.014L120.83 153.857C120.089 152.622 118.486 152.221 117.251 152.962C116.015 153.703 115.614 155.305 116.355 156.541L131.109 181.143C118.4 191.151 109.361 203.585 104.414 217.023C96.8645 237.429 99.3086 258.42 109.383 276.382L119.315 272.538L299.838 251.041L299.552 248.639L299.621 248.644C301.896 227.382 294.273 207.265 279.919 191.434C269.424 179.826 255.948 171.159 241.032 165.609L254.756 127.345C255.222 126.045 254.547 124.614 253.247 124.147ZM287.893 245.63C289.08 228.924 283.426 211.795 270.358 197.4C257.736 183.455 239.1 173.187 216.873 169.605C196.249 166.257 174.123 168.981 154.721 178.667C136.698 187.637 122.455 201.953 115.852 219.929C110.437 234.595 110.529 250.708 117.138 265.965L287.893 245.63ZM253.859 219.432C254.339 216.107 253.711 212.603 251.832 209.512L239.014 217.303L242.734 202.772C239.479 201.94 235.927 202.185 232.652 203.723C229.609 205.146 227.022 207.592 225.471 210.86C224.026 213.893 223.584 217.425 224.463 220.934C225.274 224.194 227.178 227.202 230.087 229.353C232.785 231.355 236.167 232.468 239.779 232.28C243.135 232.111 246.453 230.821 249.123 228.38C251.606 226.118 253.349 223.013 253.859 219.432ZM165.591 216.767C167.925 219.6 169.044 223.039 169.009 226.447C168.977 230.118 167.623 233.47 165.404 236.058C163.019 238.849 159.825 240.544 156.462 241.099C152.841 241.702 149.305 240.946 146.373 239.208C143.212 237.34 140.99 234.488 139.863 231.271C138.644 227.808 138.777 224.195 139.983 221.007C141.277 217.571 143.702 214.89 146.676 213.224C149.876 211.425 153.458 210.932 156.808 211.566L154.013 226.303L165.591 216.767Z" clip-rule="evenodd" fill="#5E87FF" fill-opacity="1.000000" fill-rule="evenodd"/>
	</g>
	<g filter="url(#filter_2_45_dd)">
		<path id="减去顶层" d="M190.703 50.2884C227.471 48.0053 261.992 59.2057 289.435 79.6228C319.026 101.563 338.183 132.387 345.987 165.69C354.45 201.542 349.209 237.454 333.693 267.938C317.037 300.794 289.869 324.858 258.351 338.147C224.431 352.513 188.149 353.381 155.491 343.207C120.304 332.309 92.017 309.571 73.6216 280.733C53.7603 249.709 46.8088 214.088 51.3149 180.183L76.979 183.603C75.6799 189.562 75 195.712 75 202C75 256.124 125.368 300 187.5 300C249.632 300 300 256.124 300 202C300 149.791 253.133 107.118 194.049 104.163L190.703 50.2884Z" clip-rule="evenodd" fill="#5E87FF" fill-opacity="1.000000" fill-rule="evenodd"/>
		<path id="多边形 2" d="M224 49L188 52L183 61L180 77.18L170 84L180 89L183 97C183 97 192.24 108 214 108C235.75 108 271 116 271 116C271 116 324 132 300.5 121C277 110 263.5 73 263.5 73L224 49Z" fill="#5E87FF" fill-opacity="1.000000" fill-rule="evenodd"/>
		<path id="多边形 2" d="M188 52L183 61L180 77.18L170 84L180 89L183 97C183 97 192.24 108 214 108C235.75 108 271 116 271 116C271 116 324 132 300.5 121C277 110 263.5 73 263.5 73L224 49L188 52Z" stroke="#5E87FF" stroke-opacity="1.000000" stroke-width="5.000000"/>
		<path id="矢量 2" d="M96.22 305.02C-63.73 106.21 150.59 199.66 179.53 151.43" stroke="#5E87FF" stroke-opacity="1.000000" stroke-width="10.000000"/>
		<path id="多边形 1" d="M45.38 180.92L35.77 195.33C35.28 196.07 35.14 197 35.4 197.85L45.59 232.13C45.85 232.99 46.48 233.7 47.31 234.04L54.96 237.23C56.59 237.91 58.45 237.04 58.98 235.35L74.82 184.54C74.94 184.18 75.12 183.84 75.35 183.55L81.63 175.76C83.46 173.49 81.31 170.21 78.5 170.99L47.07 179.7C46.38 179.89 45.78 180.33 45.38 180.92Z" fill="#5E87FF" fill-opacity="1.000000" fill-rule="evenodd"/>
		<path id="多边形 1" d="M45.38 180.92L35.77 195.33C35.28 196.07 35.14 197 35.4 197.85L45.59 232.13C45.85 232.99 46.48 233.7 47.31 234.04L54.96 237.23C56.59 237.91 58.45 237.04 58.98 235.35L74.82 184.54C74.94 184.18 75.12 183.84 75.35 183.55L81.63 175.76C83.46 173.49 81.31 170.21 78.5 170.99L47.07 179.7C46.38 179.89 45.78 180.33 45.38 180.92Z" fill="#5E87FF" fill-opacity="1.000000" fill-rule="evenodd"/>
		<path id="多边形 1" d="M35.77 195.33C35.28 196.07 35.14 197 35.4 197.85L45.59 232.13C45.85 232.99 46.48 233.7 47.31 234.04L54.96 237.23C56.59 237.91 58.45 237.04 58.98 235.35L74.82 184.54C74.94 184.18 75.12 183.84 75.35 183.55L81.63 175.76C83.46 173.49 81.31 170.21 78.5 170.99L47.07 179.7C46.38 179.89 45.78 180.33 45.38 180.92L35.77 195.33Z" stroke="#5E87FF" stroke-opacity="1.000000" stroke-width="5.000000"/>
		<path id="多边形 1" d="M155 167.49L84 167.49L115.13 167.49C115.31 167.49 115.48 167.51 115.66 167.54L128.89 169.88C129.31 169.96 129.74 169.94 130.16 169.83L184.08 156.04C185.09 155.78 185.9 155.02 186.15 154C187.04 150.37 188.51 142.07 182.72 144.4C176.32 146.99 161.04 162.57 157.19 166.56C156.61 167.16 155.83 167.49 155 167.49Z" fill="#5E87FF" fill-opacity="1.000000" fill-rule="evenodd"/>
		<path id="多边形 1" d="M155 167.49L84 167.49L115.13 167.49C115.31 167.49 115.48 167.51 115.66 167.54L128.89 169.88C129.31 169.96 129.74 169.94 130.16 169.83L184.08 156.04C185.09 155.78 185.9 155.02 186.15 154C187.04 150.37 188.51 142.07 182.72 144.4C176.32 146.99 161.04 162.57 157.19 166.56C156.61 167.16 155.83 167.49 155 167.49Z" fill="#5E87FF" fill-opacity="1.000000" fill-rule="evenodd"/>
		<path id="多边形 1" d="M84 167.49L115.13 167.49C115.31 167.49 115.48 167.51 115.66 167.54L128.89 169.88C129.31 169.96 129.74 169.94 130.16 169.83L184.08 156.04C185.09 155.78 185.9 155.02 186.15 154C187.04 150.37 188.51 142.07 182.72 144.4C176.32 146.99 161.04 162.57 157.19 166.56C156.61 167.16 155.83 167.49 155 167.49L84 167.49Z" stroke="#5E87FF" stroke-opacity="1.000000" stroke-width="5.000000"/>
		<path id="椭圆 1" d="M225.04 49.55C262.53 56.67 294.18 77.79 315.7 106.72C339.43 138.55 348.9 176.98 345.18 213.95C341.23 253.79 322.46 288.45 295.04 312.82C265.54 339.12 228.68 351.26 192.4 349.85C154.18 348.41 119.86 332.17 94.47 306.76C93.52 305.81 93.53 304.26 94.48 303.29C95.46 302.29 97.07 302.3 98.06 303.29C124.41 329.64 158.31 343.49 192.6 344.8C230.39 346.3 265.33 332.58 291.82 309C320.38 283.64 336.71 249.16 340.28 213.42C344.17 174.92 333.04 138.34 311.77 109.77C289.43 79.69 257.86 60.96 224.18 54.52C222.82 54.26 221.9 52.97 222.13 51.6C222.35 50.22 223.67 49.28 225.04 49.55Z" fill="#5E87FF" fill-opacity="1.000000" fill-rule="evenodd"/>
		<path id="椭圆 1" d="M315.7 106.72C339.43 138.55 348.9 176.98 345.18 213.95C341.23 253.79 322.46 288.45 295.04 312.82C265.54 339.12 228.68 351.26 192.4 349.85C154.18 348.41 119.86 332.17 94.47 306.76C93.52 305.81 93.53 304.26 94.48 303.29C95.46 302.29 97.07 302.3 98.06 303.29C124.41 329.64 158.31 343.49 192.6 344.8C230.39 346.3 265.33 332.58 291.82 309C320.38 283.64 336.71 249.16 340.28 213.42C344.17 174.92 333.04 138.34 311.77 109.77C289.43 79.69 257.86 60.96 224.18 54.52C222.82 54.26 221.9 52.97 222.13 51.6C222.35 50.22 223.67 49.28 225.04 49.55C262.53 56.67 294.18 77.79 315.7 106.72Z" stroke="#5E87FF" stroke-opacity="1.000000" stroke-width="5.000000"/>
		<path id="矢量 1" d="M197.85 101.67L167.9 85.41C165.14 83.91 166.24 79.34 169.32 78.81C189.35 75.33 185.88 61.5 178.62 50.79C177.03 48.45 178.93 44.98 181.72 45.38L224.63 51.49" stroke="#5E87FF" stroke-opacity="1.000000" stroke-width="10.000000"/>
	</g>
	<path id="减去顶层" d="M275.336 263.239L314.888 296.441C328.378 280.427 338.7 261.313 344.629 239.826C350.212 219.64 351.634 197.963 348.06 175.956L298.12 184.066C299.355 189.88 300 195.874 300 202C300 225.171 290.769 246.463 275.336 263.239Z" clip-rule="evenodd" fill="url(#paint_linear_2_34_0)" fill-opacity="1.000000" fill-rule="evenodd"/>
	<path id="减去顶层" d="M210.656 297.922L216.228 349.12C237.047 346.891 257.725 340.232 276.871 328.819C294.869 318.107 310.893 303.44 323.538 285.078L281.368 256.036C265.307 277.165 240.096 292.556 210.656 297.922Z" clip-rule="evenodd" fill="url(#paint_linear_2_37_0)" fill-opacity="1.000000" fill-rule="evenodd"/>
	<path id="减去顶层" d="M124.527 283.22L99.2322 311.112C114.717 325.205 133.422 336.251 154.665 342.998C174.623 349.35 196.229 351.601 218.357 348.872L212.043 297.661C204.142 299.192 195.93 300 187.5 300C164.169 300 142.497 293.813 124.527 283.22Z" clip-rule="evenodd" fill="url(#paint_linear_2_40_0)" fill-opacity="0.996078" fill-rule="evenodd"/>
	<g filter="url(#filter_2_51_dd)">
		<path id="AI" d="M57.63 143L46.35 143L76.23 54.93L88.59 54.93L118.48 143L106.73 143L98.32 116.1L66.15 116.1L57.63 143ZM142.01 143L130.85 143L130.85 54.93L142.01 54.93L142.01 143ZM82 64.04C79.25 74.35 76.35 83.84 73.24 93.81L68.91 107.22L95.57 107.22L91.35 93.81C88.12 83.84 85.34 74.24 82.47 64.04L82 64.04Z" fill="#5E87FF" fill-opacity="1.000000" fill-rule="evenodd"/>
	</g>
	<path id="AI" d="M73.24 93.81C76.35 83.84 79.25 74.35 82 64.04L82.47 64.04C85.34 74.24 88.12 83.84 91.35 93.81L95.57 107.22L68.91 107.22L73.24 93.81ZM46.35 143L57.63 143L66.15 116.1L98.32 116.1L106.73 143L118.48 143L88.59 54.93L76.23 54.93L46.35 143ZM130.85 143L142.01 143L142.01 54.93L130.85 54.93L130.85 143Z" stroke="#5AB1FF" stroke-opacity="1.000000" stroke-width="1.000000"/>
</svg>
